<svg xmlns="http://www.w3.org/2000/svg" xmlns:xlink="http://www.w3.org/1999/xlink" id="Capa_1" data-name="Capa 1" viewBox="0 0 227.82 227.81"><defs><style>.cls-1{fill:#fff;}.cls-2{fill:url(#Degradado_sin_nombre_6);}</style><linearGradient id="Degradado_sin_nombre_6" x1="305.36" y1="250.85" x2="305.36" y2="478.66" gradientUnits="userSpaceOnUse"><stop offset="0.17" stop-color="#0c64a9"></stop><stop offset="0.39" stop-color="#125995"></stop><stop offset="0.86" stop-color="#223d63"></stop><stop offset="0.93" stop-color="#25385a"></stop></linearGradient></defs><title>logo asesoria</title><circle class="cls-1" cx="114.55" cy="114.66" r="110.27"></circle><path class="cls-2" d="M305.45,250.85a113.91,113.91,0,1,1-114,113.74A113.86,113.86,0,0,1,305.45,250.85Zm57.91,135.6c-.21,1.48-.36,3-.66,4.44a5.48,5.48,0,0,0,.69,4,22.18,22.18,0,0,0,3.24,4.29,18.22,18.22,0,0,0,2.89,2.44,1.79,1.79,0,0,0,2.28-.07,11.75,11.75,0,0,0,1.89-1.84,46.63,46.63,0,0,0,3.22-4.42,96.09,96.09,0,0,0,7.32-13.68,67.08,67.08,0,0,0,3.72-9.81,14.44,14.44,0,0,0,.62-3.46,1.87,1.87,0,0,0-.27-1.18c-.23-.32-.45-.3-.64.07-.3.6-.57,1.23-.9,1.82A125.55,125.55,0,0,1,373,389.52c-.17.19-.28.45-.61.55.07-.31.13-.59.2-.88,1.94-7.85,4.31-15.58,6.83-23.27,2.75-8.38,5.53-16.75,9-24.88,1.62-3.81,3.1-7.68,5.57-11.06a3.5,3.5,0,0,0-1.22-1.14,29,29,0,0,0-3.86-2.13,16.54,16.54,0,0,0-3.35-1.07,1.58,1.58,0,0,0-1.94.78c-.27.49-.6.95-.85,1.45-.55,1-1.08,2.09-1.58,3.15-2.37,5-4.3,10.18-6.18,15.38a2,2,0,0,1-.32.69,1.44,1.44,0,0,1-.21-.71,14,14,0,0,0-1.32-3.82,3.72,3.72,0,0,0-3.1-2.17,44.43,44.43,0,0,0-4.75-.34c-4.41-.06-8.83,0-13.24,0a2.54,2.54,0,0,1-1-.09,32.88,32.88,0,0,1,3.41-6.13c.51-.67.51-.69-.14-1.25a6,6,0,0,0-.57-.42,26.74,26.74,0,0,0-3.84-2.15,14.45,14.45,0,0,0-3.87-1.18,1.33,1.33,0,0,0-1.37.56,16.49,16.49,0,0,0-1.45,2.42,75.61,75.61,0,0,0-3.49,8,1,1,0,0,1-1,.72q-6.21.12-12.43.56l-6.43.44c-.77.06-.92.32-.56,1a4.28,4.28,0,0,0,.56.78,6.46,6.46,0,0,0,3.74,2.19,23.81,23.81,0,0,0,4.91.53h8.64a1.78,1.78,0,0,1-.25,1.06c-3.08,8.39-6,16.83-8.38,25.46a15.1,15.1,0,0,1-3.12,5.91,101.9,101.9,0,0,1-14.27,14.28,27,27,0,0,1-3.69,2.56,6.14,6.14,0,0,1-2.06.78,1.48,1.48,0,0,1-1.73-.9,4,4,0,0,1-.39-1.44,14.08,14.08,0,0,1,.12-3.78,73.39,73.39,0,0,1,3.07-12.31c0-.14.05-.3.24-.34s.43.37.64.57a5.92,5.92,0,0,0,6.27,1.45,12.66,12.66,0,0,0,2.5-1.1,15.45,15.45,0,0,0,4.25-3.68,24,24,0,0,0,5.46-11.5,6.93,6.93,0,0,0-1.32-5.83,29.92,29.92,0,0,0-10.15-7.91,2.79,2.79,0,0,0-2-.18,8.08,8.08,0,0,0-3.74,2.24,32.83,32.83,0,0,0-5.63,7.76,79.09,79.09,0,0,0-7.13,18.47,56.57,56.57,0,0,0-2,13.5,8.68,8.68,0,0,0,.69,3.6,15.53,15.53,0,0,0,4.1,5.58,17,17,0,0,0,6.91,3.93,6.94,6.94,0,0,0,6.63-1.32,41.61,41.61,0,0,0,4.42-4.18,82.74,82.74,0,0,0,7.44-9.74c.17-.25.25-.59.64-.73,0,.26,0,.46-.07.66-.25,1.51-.48,3-.77,4.52a5.33,5.33,0,0,0,.62,3.83c.23.38.44.77.68,1.14a18.76,18.76,0,0,0,5.26,5.64A1.72,1.72,0,0,0,333,404a14.83,14.83,0,0,0,2.2-2.28,86.53,86.53,0,0,0,7.65-11.33,2.57,2.57,0,0,1,.5-.76c0,.87,0,1.68,0,2.5a21.09,21.09,0,0,0,.24,4.05c.74,4.31,3.4,6.89,7.43,8.25a3,3,0,0,0,3.36-.88,17.47,17.47,0,0,0,2.28-3,63.6,63.6,0,0,0,4.06-8c.86-2,1.69-4,2.54-6ZM282,403.13a38,38,0,0,1,.87-4.95,208.8,208.8,0,0,1,6-20.29c4-11.62,8.56-23,13.23-34.41a3.46,3.46,0,0,0,.2-2,19,19,0,0,0-.82-2.88,36.79,36.79,0,0,0-5-9.67,7.05,7.05,0,0,0-1.69-1.67,1.8,1.8,0,0,0-1.93-.12,8.21,8.21,0,0,0-1.06.63,21,21,0,0,0-2.53,2.19,85,85,0,0,0-6.67,7.53c-5.32,6.61-10.16,13.56-14.82,20.65a3.69,3.69,0,0,1-.65.89c-.1-.23,0-.38.07-.54,1.16-3.74,2.34-7.46,3.49-11.2a64.55,64.55,0,0,0,1.72-6.84,4.6,4.6,0,0,0-.64-3.37,28.67,28.67,0,0,0-7.93-8.66,8.24,8.24,0,0,0-2.45-1.21,2.71,2.71,0,0,0-2.72.53,20.3,20.3,0,0,0-2.18,2.17,101.49,101.49,0,0,0-7.33,9.95c-5,7.47-9.51,15.21-13.88,23.05-4.67,8.38-9.27,16.8-13.31,25.5a66.6,66.6,0,0,0-3.2,7.83,4.56,4.56,0,0,0,.62,4.19,23.19,23.19,0,0,0,7,6.6,2.43,2.43,0,0,0,1.17.44,5.17,5.17,0,0,1-.08-1.7,15.25,15.25,0,0,1,.3-1.64c.15-.66.32-1.32.52-2a159.66,159.66,0,0,1,6.36-16.26c4.87-11,10.35-21.72,16.28-32.19A146.76,146.76,0,0,1,259.64,340a26.46,26.46,0,0,1,3.23-3.85A4.84,4.84,0,0,1,264.5,335a.64.64,0,0,1,0,.54c-.23.85-.45,1.71-.71,2.55-3.25,10.54-6.72,21-10.06,31.51-2.46,7.74-4.86,15.49-7.1,23.29a1.67,1.67,0,0,0,.39,1.77,5.91,5.91,0,0,0,.48.52,21.62,21.62,0,0,0,6.8,4.34,4.06,4.06,0,0,0,.59.19c.86.23.88.21,1-.65,0-.35,0-.7.09-1.05a17.09,17.09,0,0,1,1.37-5.63c.68-1.4,1.24-2.86,1.91-4.27,2.93-6.17,6.23-12.14,9.7-18a243,243,0,0,1,17.77-26.42,57.08,57.08,0,0,1,5.18-6,10.48,10.48,0,0,1,1.91-1.54c-.42,1-.78,1.84-1.13,2.67-4,9.4-7.61,18.94-11.27,28.46-3.09,8-5.91,16.19-8.2,24.5a37.78,37.78,0,0,0-1.19,6,3.59,3.59,0,0,0,1.2,3.08,18.36,18.36,0,0,0,7.64,4.41,2.81,2.81,0,0,0,1.25.17A8.39,8.39,0,0,1,282,403.13Zm52.48-11.71a142.66,142.66,0,0,0,10.87-14.23,4.9,4.9,0,0,0,.68-1.51,83.18,83.18,0,0,1,5.77-15.52,34.14,34.14,0,0,1,4.69-7.24,14.52,14.52,0,0,1,3.14-2.82,5.77,5.77,0,0,1,5.24-.59,24.52,24.52,0,0,1,6.64,3.77,2.59,2.59,0,0,0,.83.57c.75-2.11,1.48-4.18,2.22-6.28a42.73,42.73,0,0,0-8.43-1.15c-4.47-.23-8.94-.35-13.42-.46-1.2,0-2.41,0-3.62,0a.61.61,0,0,0-.72.47,5.4,5.4,0,0,1-.25.67c-2.3,6-4.41,12-6.45,18.11-2.88,8.56-5.59,17.16-7.74,25.94a1.59,1.59,0,0,0-.1.87C334.18,391.92,334.32,391.63,334.5,391.42ZM353.21,394a41.28,41.28,0,0,0,2.28-3.46c4.55-7.58,8.59-15.42,12.41-23.37a21.91,21.91,0,0,0,1.64-4.37c.22-.91.53-1.8.82-2.7.36-1.1.37-1.09-.61-1.76a2.9,2.9,0,0,0-.29-.19,2.66,2.66,0,0,0-3.61.38,15.87,15.87,0,0,0-1.9,2.2,34.93,34.93,0,0,0-3.24,5.66,115.5,115.5,0,0,0-8.09,24.49,12.3,12.3,0,0,0-.37,4.07A3.1,3.1,0,0,0,353.21,394ZM308,374.33a3.37,3.37,0,0,0,.34-.09,10.81,10.81,0,0,0,4.58-3,20.55,20.55,0,0,0,5.13-11,12.6,12.6,0,0,0,.16-2.81c-.07-.78-.23-.87-.93-.47a4.71,4.71,0,0,0-.77.58,9.12,9.12,0,0,0-1.17,1.31,35.84,35.84,0,0,0-3.41,5.54,76,76,0,0,0-4.21,9.94A1.06,1.06,0,0,0,308,374.33Z" transform="translate(-191.45 -250.85)"></path><path class="cls-1" d="M250.86,438H241.5l-2.84,5.22h-5L247,419.58h5.39l3.84,23.62h-4.61Zm-.59-3.93-1.37-9.51-5.71,9.51Z" transform="translate(-191.45 -250.85)"></path><path class="cls-1" d="M258.6,438.42l4.48-.71a3.66,3.66,0,0,0,3.9,2.59,4.05,4.05,0,0,0,2.52-.71,1.4,1.4,0,0,0,.67-1.17,1.25,1.25,0,0,0-.34-.84,5.78,5.78,0,0,0-1.92-.87,20.67,20.67,0,0,1-5.19-2.19,4,4,0,0,1-1.56-3.29,4.71,4.71,0,0,1,1.51-3.5q2.11-2,6.27-2a8.56,8.56,0,0,1,5,1.21,5.26,5.26,0,0,1,2.14,3.27l-4.27.74a2.64,2.64,0,0,0-1.1-1.4,4.64,4.64,0,0,0-2.48-.63,3.5,3.5,0,0,0-2.08.48,1.37,1.37,0,0,0-.64,1.11,1.24,1.24,0,0,0,.64,1.07,15.7,15.7,0,0,0,2.6.9,13.88,13.88,0,0,1,4.53,1.93,4.07,4.07,0,0,1,1.61,3.23,5.47,5.47,0,0,1-2.05,4.22,8.5,8.5,0,0,1-5.77,1.79,10.19,10.19,0,0,1-5.73-1.37A6.73,6.73,0,0,1,258.6,438.42Z" transform="translate(-191.45 -250.85)"></path><path class="cls-1" d="M294.21,436.08H282.6c0,.18,0,.32,0,.42a3.89,3.89,0,0,0,1,2.76,3.16,3.16,0,0,0,2.38,1,4,4,0,0,0,3.59-2.38l4.14.69a8.69,8.69,0,0,1-3.23,3.75,8.46,8.46,0,0,1-4.53,1.25,7.53,7.53,0,0,1-5.61-2.19,7.84,7.84,0,0,1-2.16-5.77,10.53,10.53,0,0,1,1.95-6.26,8.77,8.77,0,0,1,7.59-3.7,6.57,6.57,0,0,1,5,1.94,7.58,7.58,0,0,1,1.85,5.44A13.11,13.11,0,0,1,294.21,436.08Zm-3.9-2.82c0-.2,0-.36,0-.47a4.17,4.17,0,0,0-.85-2.85,2.94,2.94,0,0,0-2.29-.95,3.65,3.65,0,0,0-2.57,1.08,5.74,5.74,0,0,0-1.54,3.19Z" transform="translate(-191.45 -250.85)"></path><path class="cls-1" d="M295.3,438.42l4.48-.71a4.35,4.35,0,0,0,1.48,2,4.27,4.27,0,0,0,2.42.59,4.08,4.08,0,0,0,2.53-.71,1.41,1.41,0,0,0,.66-1.17,1.2,1.2,0,0,0-.34-.84,5.59,5.59,0,0,0-1.91-.87,20.31,20.31,0,0,1-5.19-2.19,4,4,0,0,1-1.57-3.29,4.72,4.72,0,0,1,1.52-3.5q2.12-2,6.27-2a8.51,8.51,0,0,1,5,1.21,5.27,5.27,0,0,1,2.15,3.27l-4.27.74a2.69,2.69,0,0,0-1.1-1.4,4.69,4.69,0,0,0-2.48-.63,3.54,3.54,0,0,0-2.09.48,1.39,1.39,0,0,0-.64,1.11,1.25,1.25,0,0,0,.65,1.07,15.42,15.42,0,0,0,2.59.9,13.67,13.67,0,0,1,4.53,1.93,4,4,0,0,1,1.61,3.23,5.46,5.46,0,0,1-2,4.22,8.52,8.52,0,0,1-5.77,1.79,10.19,10.19,0,0,1-5.73-1.37A6.74,6.74,0,0,1,295.3,438.42Z" transform="translate(-191.45 -250.85)"></path><path class="cls-1" d="M314.93,436.1a10.54,10.54,0,0,1,2.68-7.58,9.26,9.26,0,0,1,7.05-2.83,8.09,8.09,0,0,1,5.92,2.08,7.56,7.56,0,0,1,2.12,5.62,10.51,10.51,0,0,1-2.66,7.19,9,9,0,0,1-7.12,3,9.28,9.28,0,0,1-4.29-1,6.35,6.35,0,0,1-2.78-2.74A8.17,8.17,0,0,1,314.93,436.1Zm13.18-3.31a3.62,3.62,0,0,0-1-2.63,3.28,3.28,0,0,0-2.47-1,4.17,4.17,0,0,0-2.66.92,6,6,0,0,0-1.81,2.7,9.44,9.44,0,0,0-.64,3.24,4.11,4.11,0,0,0,1,2.92,3.26,3.26,0,0,0,2.51,1.08,3.91,3.91,0,0,0,3.19-1.63A8.67,8.67,0,0,0,328.11,432.79Z" transform="translate(-191.45 -250.85)"></path><path class="cls-1" d="M337.73,426.09h4.32l-.7,3.32q2.41-3.72,5.24-3.72a5.23,5.23,0,0,1,2.14.5L347,430a3.92,3.92,0,0,0-1.34-.22,4.11,4.11,0,0,0-2.42.9,6.17,6.17,0,0,0-1.93,2.41,24.67,24.67,0,0,0-1.37,4.78l-1.12,5.36h-4.63Z" transform="translate(-191.45 -250.85)"></path><path class="cls-1" d="M350.83,426.09h4.62l-3.57,17.11h-4.63Zm1.35-6.51h4.63l-.87,4.19h-4.63Z" transform="translate(-191.45 -250.85)"></path><path class="cls-1" d="M363,430.94l-4.52-.39a6.84,6.84,0,0,1,2.7-3.57,9,9,0,0,1,5.1-1.29,7.45,7.45,0,0,1,4.88,1.33,4.06,4.06,0,0,1,1.58,3.24,10.75,10.75,0,0,1-.13,1.65c-.1.58-.41,2.1-1,4.57a23.79,23.79,0,0,0-.68,4.29,8.74,8.74,0,0,0,.39,2.43h-4.5a9.39,9.39,0,0,1-.34-1.93,7,7,0,0,1-2.33,1.73,6.4,6.4,0,0,1-2.66.61,4.73,4.73,0,0,1-3.51-1.4,4.84,4.84,0,0,1-1.39-3.58,5.2,5.2,0,0,1,1.52-3.92q1.53-1.47,5.44-1.77a21.47,21.47,0,0,0,4.42-.66,5.88,5.88,0,0,0,.29-1.55,1.55,1.55,0,0,0-.6-1.24,2.73,2.73,0,0,0-1.77-.5,3.33,3.33,0,0,0-2,.51A2.51,2.51,0,0,0,363,430.94Zm4.39,4.29q-.42.11-1.11.21c-2.32.28-3.83.68-4.54,1.22a1.86,1.86,0,0,0-.76,1.56,1.83,1.83,0,0,0,.58,1.37,2.13,2.13,0,0,0,1.53.55,4.06,4.06,0,0,0,2-.51,3.47,3.47,0,0,0,1.38-1.3,8.57,8.57,0,0,0,.81-2.49Z" transform="translate(-191.45 -250.85)"></path></svg>